<svg xmlns="http://www.w3.org/2000/svg" viewBox="0 -224 672 446">
  <path d="M29 224C24 224 23 224 18 224C7 224 0 216 0 206C0 196 0 -197 0 -205C0 -214 7 -222 18 -222C23 -222 24 -222 29 -222C37 -222 46 -213 46 -205C46 -197 46 196 46 206C46 216 39 224 29 224ZM563 224C559 224 557 224 552 224C542 224 535 216 535 206C535 203 535 163 535 108C497 144 434 170 337 170C240 170 176 144 139 108C139 163 139 203 139 206C139 216 132 224 121 224C116 224 115 224 110 224C100 224 92 216 92 206C92 196 92 -197 92 -205C92 -214 100 -222 110 -222C115 -222 116 -222 121 -222C130 -222 139 -213 139 -205C139 -203 139 -162 139 -107C176 -143 240 -169 337 -169C434 -169 497 -143 535 -107C535 -162 535 -202 535 -205C535 -214 542 -222 552 -222C557 -222 559 -222 563 -222C572 -222 581 -213 581 -205C581 -197 581 196 581 206C581 216 574 224 563 224ZM401 -121C386 -125 366 -129 347 -129C312 -129 289 -118 273 -87C257 -56 234 25 232 59C232 61 232 63 232 65C232 95 245 113 273 122C288 126 308 130 327 130C361 130 383 122 401 88C419 55 442 -25 442 -57C442 -90 431 -111 401 -121ZM655 224C650 224 648 224 643 224C633 224 626 216 626 206C626 196 626 -197 626 -205C626 -214 633 -222 643 -222C648 -222 650 -222 655 -222C663 -222 672 -213 672 -205C672 -197 672 196 672 206C672 216 665 224 655 224Z" transform="scale(1, -1)"/>
</svg>