<svg xmlns="http://www.w3.org/2000/svg" viewBox="21 -602 426 659">
  <path d="M359 238C293 300 279 372 276 398V412C320 384 417 309 417 196C417 187 417 179 417 171C404 191 385 213 359 238ZM243 136C232 143 218 147 202 149C166 149 137 145 105 127C65 106 21 62 21 14C21 -34 64 -57 108 -57C179 -57 276 2 276 79V235C312 220 361 175 386 140C406 112 418 81 418 42C418 22 415 0 408 -25C407 -26 406 -29 406 -33C406 -37 408 -43 414 -44C415 -45 417 -45 418 -45C427 -45 430 -35 430 -34C443 1 447 27 447 68C447 84 447 101 441 122C446 155 447 186 447 219C444 301 412 347 392 373C373 399 354 423 351 426C317 468 293 512 276 563C276 564 275 565 275 565C275 566 271 583 269 590C268 592 268 593 268 594C265 601 262 602 254 602C247 601 243 595 243 590Z" transform="scale(1, -1)"/>
</svg>