<svg xmlns="http://www.w3.org/2000/svg" viewBox="20 -733 427 790">
  <path d="M416 317C403 337 384 359 358 384C292 445 278 516 275 544C361 493 416 420 416 317ZM358 232C292 293 278 357 275 381C311 367 360 324 385 289C405 261 418 229 417 189C417 181 417 174 416 166C403 185 384 207 358 232ZM275 218C311 206 360 169 385 134C405 106 417 78 417 41C417 22 414 0 407 -25C406 -26 406 -29 406 -33C406 -38 407 -43 413 -44C414 -45 416 -45 417 -45C426 -45 429 -34 429 -34C443 1 447 27 447 68C447 86 446 106 436 131C444 157 447 181 447 214C447 228 446 244 441 262C445 289 447 314 447 333C447 339 447 345 446 350C443 431 411 478 391 504C372 530 351 557 351 557C316 599 292 642 275 694C275 695 275 695 274 696C274 697 270 713 268 720C268 723 267 724 267 724C266 727 264 733 255 733C255 733 254 732 253 732C246 732 242 726 242 720V136C231 143 217 147 201 149C134 149 64 120 32 58C24 43 20 28 20 14V13C20 -34 64 -57 107 -57C178 -57 275 2 275 79Z" transform="scale(1, -1)"/>
</svg>